<svg width="221" height="27" viewBox="0 0 221 27" fill="none" xmlns="http://www.w3.org/2000/svg">
<g clip-path="url(#clip0_18_26)">
<path d="M50.5251 24.6897H37.7704C31.6019 24.6195 26.6133 19.4355 26.6843 13.2669C26.7546 7.09835 31.8598 2.10909 38.0284 2.18007H50.5251" stroke="white" stroke-width="2.60041" stroke-miterlimit="10" stroke-linecap="round"/>
<path d="M167.939 2.17932V13.6C167.869 19.7686 162.764 24.7579 156.595 24.6869C150.426 24.6166 145.437 19.5107 145.508 13.3421V2.17932" stroke="white" stroke-width="2.60041" stroke-miterlimit="10" stroke-linecap="round"/>
<path d="M66.9641 13.5848C72.4889 14.249 76.8589 18.9965 76.8589 24.6892" stroke="white" stroke-width="2.60041" stroke-miterlimit="10" stroke-linecap="round"/>
<path d="M57.3496 2.17932H71.0826C72.5953 2.18377 74.0448 2.78668 75.1145 3.85635C76.1841 4.92602 76.787 6.37553 76.7915 7.88827V7.88827C76.7878 9.40198 76.1848 10.8526 75.1145 11.923C74.0441 12.9933 72.5934 13.5963 71.0797 13.6H57.3208" stroke="white" stroke-width="2.60041" stroke-miterlimit="10" stroke-linecap="round"/>
<path d="M57.3472 24.8113V13.6204" stroke="white" stroke-width="2.60041" stroke-miterlimit="10" stroke-linecap="round"/>
<path d="M111.454 13.2669C111.524 7.09835 116.63 2.10909 122.799 2.18007C128.966 2.25105 133.956 7.35628 133.886 13.5249V24.6855" stroke="white" stroke-width="2.60041" stroke-miterlimit="10" stroke-linecap="round"/>
<path d="M111.454 24.6855V2.17932" stroke="white" stroke-width="2.60041" stroke-miterlimit="10" stroke-linecap="round"/>
<path d="M174.778 24.6855V13.2669C174.848 7.09835 179.954 2.10909 186.123 2.18007C192.29 2.25105 197.28 7.35628 197.21 13.5249V24.6855" stroke="white" stroke-width="2.60041" stroke-miterlimit="10" stroke-linecap="round"/>
<path d="M197.267 13.2669C197.338 7.09835 202.444 2.10909 208.612 2.18007C214.779 2.25105 219.769 7.35628 219.699 13.5249V24.6855" stroke="white" stroke-width="2.60041" stroke-miterlimit="10" stroke-linecap="round"/>
<path d="M174.778 17.0487V2.17932" stroke="white" stroke-width="2.60041" stroke-miterlimit="10" stroke-linecap="round"/>
<path d="M7.83896 19.9423C6.62921 19.9395 5.46996 19.457 4.61552 18.6005C3.76108 17.7441 3.28122 16.5838 3.28123 15.374L3.28615 11.4382C3.28689 10.839 3.40565 10.2457 3.63566 9.69236C3.86568 9.13899 4.20243 8.63634 4.6267 8.21311C5.05097 7.78989 5.55444 7.45437 6.10838 7.22573C6.66231 6.99708 7.25586 6.87977 7.85513 6.88051C8.4544 6.88125 9.04765 7.00002 9.60102 7.23003C10.1544 7.46004 10.657 7.7968 11.0803 8.22107C11.5035 8.64533 11.839 9.14881 12.0677 9.70274C12.2963 10.2567 12.4136 10.8502 12.4129 11.4495L12.4079 15.3852C12.405 16.595 11.9223 17.7542 11.0657 18.6085C10.2092 19.4628 9.04872 19.9425 7.83896 19.9423V19.9423ZM7.85302 8.21937C6.99815 8.22029 6.17844 8.55977 5.57323 9.16353C4.96801 9.7673 4.62657 10.5862 4.6236 11.4411L4.61868 15.3768C4.61188 15.8044 4.69015 16.229 4.84895 16.6261C5.00775 17.0231 5.24391 17.3846 5.54369 17.6896C5.84347 17.9946 6.20089 18.2369 6.59516 18.4024C6.98943 18.568 7.41269 18.6535 7.84031 18.654C8.26794 18.6545 8.6914 18.57 9.08607 18.4054C9.48073 18.2408 9.83873 17.9993 10.1392 17.6951C10.4398 17.3909 10.6768 17.0299 10.8365 16.6333C10.9963 16.2366 11.0756 15.8121 11.0698 15.3845L11.0747 11.4488C11.0749 10.5936 10.7358 9.77322 10.1318 9.16777C9.52777 8.56232 8.70823 8.22123 7.85302 8.21937V8.21937Z" fill="white"/>
<path d="M8.33091 1.05295L8.33021 1.05295C3.7407 1.04735 0.015619 4.76333 0.0100118 9.35285L-0.000243829 17.7472C-0.00585098 22.3367 3.71014 26.0618 8.29965 26.0674L8.30035 26.0674C12.8899 26.073 16.6149 22.357 16.6205 17.7675L16.6308 9.37315C16.6364 4.78364 12.9204 1.05856 8.33091 1.05295Z" fill="white"/>
<path d="M8.3156 16.8522C10.1337 16.8522 11.6076 15.3784 11.6076 13.5603C11.6076 11.7422 10.1337 10.2683 8.3156 10.2683C6.49749 10.2683 5.02363 11.7422 5.02363 13.5603C5.02363 15.3784 6.49749 16.8522 8.3156 16.8522Z" fill="white" stroke="black" stroke-width="1.05422" stroke-miterlimit="10"/>
<path d="M83.0252 24.9667V13.5481C83.0955 7.37951 88.2014 2.39024 94.37 2.46123C100.539 2.53151 105.528 7.63744 105.457 13.806V24.9667" stroke="white" stroke-width="2.60041" stroke-miterlimit="10" stroke-linecap="round"/>
<path d="M139.567 24.9666V2.46048" stroke="white" stroke-width="2.60041" stroke-miterlimit="10" stroke-linecap="round"/>
<path d="M98.4599 13.8547H90.01" stroke="white" stroke-width="2.60041" stroke-miterlimit="10" stroke-linecap="round"/>
</g>
<defs>
<clipPath id="clip0_18_26">
<rect width="221" height="25.3877" fill="white" transform="translate(0 0.879883)"/>
</clipPath>
</defs>
</svg>
